<svg xmlns:xlink="http://www.w3.org/1999/xlink"  xmlns="http://www.w3.org/2000/svg" fill="none" viewBox="0 0 41 40" height="40" width="41">
<path fill="#0F2E2F" d="M5.53271 16.9557L20.3524 9.02764V7.18407L5.53271 15.1122V16.9557ZM21.745 9.87029V11.7376L36.4618 4.3673V2.5L21.745 9.87029ZM5.53271 23.7959L20.3524 15.8678V14.0242L5.53271 21.9524V23.7959ZM21.745 18.5975L36.4618 11.2273V9.35995L21.745 16.7302V18.5975ZM5.53271 30.6559L20.3524 22.7278V20.8842L5.53271 28.8123V30.6559ZM21.745 25.4377L36.4618 18.0674V16.2041L21.745 23.5744V25.4377ZM5.53271 37.5L20.3524 29.5719V27.7283L5.53271 35.6525V37.5ZM21.745 32.2818L36.4618 24.9116V23.0482L21.745 30.4185V32.2818Z"></path>
</svg>
