<svg xmlns:xlink="http://www.w3.org/1999/xlink"  width="24" height="25" viewBox="0 0 24 25" fill="none" xmlns="http://www.w3.org/2000/svg">
<g id="Icons 24/Microscope">
<path id="Icon" d="M3 22.5H12M11 6.75204C11.6392 6.58751 12.3094 6.5 13 6.5C17.4183 6.5 21 10.0817 21 14.5C21 17.8574 18.9318 20.7317 16 21.9185M5.5 13.5H9.5C9.96466 13.5 10.197 13.5 10.3902 13.5384C11.1836 13.6962 11.8038 14.3164 11.9616 15.1098C12 15.303 12 15.5353 12 16C12 16.4647 12 16.697 11.9616 16.8902C11.8038 17.6836 11.1836 18.3038 10.3902 18.4616C10.197 18.5 9.96466 18.5 9.5 18.5H5.5C5.03534 18.5 4.80302 18.5 4.60982 18.4616C3.81644 18.3038 3.19624 17.6836 3.03843 16.8902C3 16.697 3 16.4647 3 16C3 15.5353 3 15.303 3.03843 15.1098C3.19624 14.3164 3.81644 13.6962 4.60982 13.5384C4.80302 13.5 5.03534 13.5 5.5 13.5ZM4 6V13.5H11V6C11 4.067 9.433 2.5 7.5 2.5C5.567 2.5 4 4.067 4 6Z" stroke="#0C3D3D" stroke-linecap="round" stroke-linejoin="round"></path>
</g>
</svg>
