<svg xmlns:xlink="http://www.w3.org/1999/xlink"  width="24" height="25" viewBox="0 0 24 25" fill="none" xmlns="http://www.w3.org/2000/svg">
<g id="Icons 24/Atom">
<path id="Icon" d="M11.9995 12.5001H12.0095M15.535 16.0357C10.8488 20.722 5.46685 22.938 3.51423 20.9854C1.56161 19.0328 3.77769 13.6509 8.46398 8.96461C13.1503 4.27832 18.5322 2.06224 20.4848 4.01486C22.4374 5.96748 20.2213 11.3494 15.535 16.0357ZM15.535 8.96443C20.2213 13.6507 22.4374 19.0326 20.4848 20.9852C18.5321 22.9379 13.1502 20.7218 8.46394 16.0355C3.77765 11.3492 1.56157 5.9673 3.51419 4.01468C5.46681 2.06206 10.8487 4.27814 15.535 8.96443ZM12.4995 12.5001C12.4995 12.7763 12.2757 13.0001 11.9995 13.0001C11.7234 13.0001 11.4995 12.7763 11.4995 12.5001C11.4995 12.224 11.7234 12.0001 11.9995 12.0001C12.2757 12.0001 12.4995 12.224 12.4995 12.5001Z" stroke="#0C3D3D" stroke-linecap="round" stroke-linejoin="round"></path>
</g>
</svg>
