<svg xmlns:xlink="http://www.w3.org/1999/xlink"  width="24" height="25" viewBox="0 0 24 25" fill="none" xmlns="http://www.w3.org/2000/svg">
<g id="Icons 24/Digestion">
<path id="Icon" d="M20.0129 4.38965C20.0129 4.38965 6.74445 4.38965 5.26076 4.38965C3.77707 4.38965 3.48443 5.65319 3.47666 6.38203C3.46626 7.35644 3.93816 8.37441 5.26076 8.37441C6.58336 8.37441 14.9118 8.37441 18.9107 8.37441C20.2672 8.37441 20.4792 9.32821 20.4792 10.2608C20.4792 11.1934 20.0976 12.1472 18.9107 12.1472C17.7237 12.1472 6.70205 12.1472 5.26076 12.1472C3.81946 12.1472 3.47666 13.0162 3.47666 13.9912C3.47666 14.9662 4.32815 15.8352 5.26076 15.8352C6.19336 15.8352 17.5542 15.8352 18.9107 15.8352C20.2672 15.8352 20.4792 16.9798 20.4792 17.7428C20.4792 18.5059 20.3096 19.6504 18.9107 19.6504C17.7916 19.6504 12.9542 19.6504 10.8629 19.6504V20.9646" stroke="#0C3D3D"></path>
</g>
</svg>
