<svg xmlns:xlink="http://www.w3.org/1999/xlink"  width="24" height="25" viewBox="0 0 24 25" fill="none" xmlns="http://www.w3.org/2000/svg">
<g id="Icons 24/Refresh">
<path id="Icon" d="M1 4.50006V10.5001M1 10.5001H7M1 10.5001L5.64 6.14008C6.71475 5.06479 8.04437 4.27928 9.50481 3.85685C10.9652 3.43442 12.5089 3.38883 13.9917 3.72433C15.4745 4.05984 16.8482 4.76551 17.9845 5.77549C19.1209 6.78548 19.9828 8.06686 20.49 9.50008M23 20.5001V14.5001M23 14.5001H17M23 14.5001L18.36 18.8601C17.2853 19.9354 15.9556 20.7209 14.4952 21.1433C13.0348 21.5657 11.4911 21.6113 10.0083 21.2758C8.52547 20.9403 7.1518 20.2346 6.01547 19.2247C4.87913 18.2147 4.01717 16.9333 3.51 15.5001" stroke="#0C3D3D" stroke-linecap="round" stroke-linejoin="round"></path>
</g>
</svg>
